name rise38.3101peak57.3503fall81.6963.mot
datacolumns 19
datarows 24
range 17.06493900000000 17.10327100000000
endheader
time	ground_force1_vx	ground_force1_vy	ground_force1_vz	ground_force1_px	ground_force1_py	ground_force1_pz	ground_force2_vx	ground_force2_vy	ground_force2_vz	ground_force2_px	ground_force2_py	ground_force2_pz	ground_torque1_x	ground_torque1_y	ground_torque1_z	ground_torque2_x	ground_torque2_y	ground_torque2_z	
17.06493900000000	-4.83624000000000	672.17386799999997	39.72917100000000	0.20069900000000	0.00000000000000	0.12335300000000	0.00000000000000	0.00000000000000	0.00000000000000	0.00000000000000	0.00000000000000	0.00000000000000	0.00000000000000	16.85453200000000	0.00000000000000	0.00000000000000	0.00000000000000	0.00000000000000	
17.06661400000000	-5.45586700000000	673.69526199999996	39.78887600000000	0.19985700000000	0.00000000000000	0.12338300000000	0.00000000000000	0.00000000000000	0.00000000000000	0.00000000000000	0.00000000000000	0.00000000000000	0.00000000000000	17.00396400000000	0.00000000000000	0.00000000000000	0.00000000000000	0.00000000000000	
17.06827800000000	-6.09318100000000	675.27947800000004	39.85164100000000	0.19899000000000	0.00000000000000	0.12341500000000	0.00000000000000	0.00000000000000	0.00000000000000	0.00000000000000	0.00000000000000	0.00000000000000	0.00000000000000	17.15945800000000	0.00000000000000	0.00000000000000	0.00000000000000	0.00000000000000	
17.06993900000000	-6.74831400000000	676.92638699999998	39.91724100000000	0.19809700000000	0.00000000000000	0.12345000000000	0.00000000000000	0.00000000000000	0.00000000000000	0.00000000000000	0.00000000000000	0.00000000000000	0.00000000000000	17.32087800000000	0.00000000000000	0.00000000000000	0.00000000000000	0.00000000000000	
17.07161500000000	-7.42132300000000	678.63587399999994	39.98547600000000	0.19717800000000	0.00000000000000	0.12348800000000	0.00000000000000	0.00000000000000	0.00000000000000	0.00000000000000	0.00000000000000	0.00000000000000	0.00000000000000	17.48808100000000	0.00000000000000	0.00000000000000	0.00000000000000	0.00000000000000	
17.07327300000000	-8.11220000000000	680.40783799999997	40.05616900000000	0.19623300000000	0.00000000000000	0.12352800000000	0.00000000000000	0.00000000000000	0.00000000000000	0.00000000000000	0.00000000000000	0.00000000000000	0.00000000000000	17.66092300000000	0.00000000000000	0.00000000000000	0.00000000000000	0.00000000000000	
17.07494200000000	-8.82086400000000	682.24217799999997	40.12917300000000	0.19526200000000	0.00000000000000	0.12357000000000	0.00000000000000	0.00000000000000	0.00000000000000	0.00000000000000	0.00000000000000	0.00000000000000	0.00000000000000	17.83925800000000	0.00000000000000	0.00000000000000	0.00000000000000	0.00000000000000	
17.07661800000000	-9.54716200000000	684.13879499999996	40.20436400000000	0.19426300000000	0.00000000000000	0.12361500000000	0.00000000000000	0.00000000000000	0.00000000000000	0.00000000000000	0.00000000000000	0.00000000000000	0.00000000000000	18.02293200000000	0.00000000000000	0.00000000000000	0.00000000000000	0.00000000000000	
17.07827300000000	-10.29087300000000	686.09758199999999	40.28164700000000	0.19323900000000	0.00000000000000	0.12366100000000	0.00000000000000	0.00000000000000	0.00000000000000	0.00000000000000	0.00000000000000	0.00000000000000	0.00000000000000	18.21179100000000	0.00000000000000	0.00000000000000	0.00000000000000	0.00000000000000	
17.07993700000000	-11.05170000000000	688.11841800000002	40.36095500000000	0.19218900000000	0.00000000000000	0.12371000000000	0.00000000000000	0.00000000000000	0.00000000000000	0.00000000000000	0.00000000000000	0.00000000000000	0.00000000000000	18.40567600000000	0.00000000000000	0.00000000000000	0.00000000000000	0.00000000000000	
17.08163300000000	-11.82928100000000	690.20116299999995	40.44224600000000	0.19111500000000	0.00000000000000	0.12376100000000	0.00000000000000	0.00000000000000	0.00000000000000	0.00000000000000	0.00000000000000	0.00000000000000	0.00000000000000	18.60442300000000	0.00000000000000	0.00000000000000	0.00000000000000	0.00000000000000	
17.08327000000000	-12.62318000000000	692.34564699999999	40.52550600000000	0.19001600000000	0.00000000000000	0.12381400000000	0.00000000000000	0.00000000000000	0.00000000000000	0.00000000000000	0.00000000000000	0.00000000000000	0.00000000000000	18.80786300000000	0.00000000000000	0.00000000000000	0.00000000000000	0.00000000000000	
17.08494200000000	-13.43289500000000	694.55166899999995	40.61074900000000	0.18889400000000	0.00000000000000	0.12386800000000	0.00000000000000	0.00000000000000	0.00000000000000	0.00000000000000	0.00000000000000	0.00000000000000	0.00000000000000	19.01582300000000	0.00000000000000	0.00000000000000	0.00000000000000	0.00000000000000	
17.08661900000000	-14.25785400000000	696.81898400000000	40.69801600000000	0.18775000000000	0.00000000000000	0.12392500000000	0.00000000000000	0.00000000000000	0.00000000000000	0.00000000000000	0.00000000000000	0.00000000000000	0.00000000000000	19.22812400000000	0.00000000000000	0.00000000000000	0.00000000000000	0.00000000000000	
17.08827700000000	-15.09742300000000	699.14729899999998	40.78737400000000	0.18658600000000	0.00000000000000	0.12398300000000	0.00000000000000	0.00000000000000	0.00000000000000	0.00000000000000	0.00000000000000	0.00000000000000	0.00000000000000	19.44458300000000	0.00000000000000	0.00000000000000	0.00000000000000	0.00000000000000	
17.08994200000000	-15.95090100000000	701.53626199999997	40.87891700000000	0.18540300000000	0.00000000000000	0.12404200000000	0.00000000000000	0.00000000000000	0.00000000000000	0.00000000000000	0.00000000000000	0.00000000000000	0.00000000000000	19.66500900000000	0.00000000000000	0.00000000000000	0.00000000000000	0.00000000000000	
17.09161700000000	-16.81752800000000	703.98545999999999	40.97276400000000	0.18420300000000	0.00000000000000	0.12410200000000	0.00000000000000	0.00000000000000	0.00000000000000	0.00000000000000	0.00000000000000	0.00000000000000	0.00000000000000	19.88920700000000	0.00000000000000	0.00000000000000	0.00000000000000	0.00000000000000	
17.09327800000000	-17.69648500000000	706.49440600000003	41.06906100000000	0.18298700000000	0.00000000000000	0.12416400000000	0.00000000000000	0.00000000000000	0.00000000000000	0.00000000000000	0.00000000000000	0.00000000000000	0.00000000000000	20.11697600000000	0.00000000000000	0.00000000000000	0.00000000000000	0.00000000000000	
17.09493900000000	-18.58689400000000	709.06253500000003	41.16797700000000	0.18175700000000	0.00000000000000	0.12422600000000	0.00000000000000	0.00000000000000	0.00000000000000	0.00000000000000	0.00000000000000	0.00000000000000	0.00000000000000	20.34810600000000	0.00000000000000	0.00000000000000	0.00000000000000	0.00000000000000	
17.09661900000000	-19.48782800000000	711.68919200000005	41.26970400000000	0.18051600000000	0.00000000000000	0.12429000000000	0.00000000000000	0.00000000000000	0.00000000000000	0.00000000000000	0.00000000000000	0.00000000000000	0.00000000000000	20.58238200000000	0.00000000000000	0.00000000000000	0.00000000000000	0.00000000000000	
17.09826800000000	-20.39830800000000	714.37363300000004	41.37446000000000	0.17926500000000	0.00000000000000	0.12435400000000	0.00000000000000	0.00000000000000	0.00000000000000	0.00000000000000	0.00000000000000	0.00000000000000	0.00000000000000	20.81958300000000	0.00000000000000	0.00000000000000	0.00000000000000	0.00000000000000	
17.09994300000000	-21.31730800000000	717.11500799999999	41.48248300000000	0.17800600000000	0.00000000000000	0.12441900000000	0.00000000000000	0.00000000000000	0.00000000000000	0.00000000000000	0.00000000000000	0.00000000000000	0.00000000000000	21.05947800000000	0.00000000000000	0.00000000000000	0.00000000000000	0.00000000000000	
17.10161300000000	-22.24376000000000	719.91236200000003	41.59403100000000	0.17674200000000	0.00000000000000	0.12448400000000	0.00000000000000	0.00000000000000	0.00000000000000	0.00000000000000	0.00000000000000	0.00000000000000	0.00000000000000	21.30183300000000	0.00000000000000	0.00000000000000	0.00000000000000	0.00000000000000	
17.10327100000000	-23.17655700000000	722.76462500000002	41.70938400000000	0.17547500000000	0.00000000000000	0.12454900000000	0.00000000000000	0.00000000000000	0.00000000000000	0.00000000000000	0.00000000000000	0.00000000000000	0.00000000000000	21.54640400000000	0.00000000000000	0.00000000000000	0.00000000000000	0.00000000000000	
